<?xml version="1.0" encoding="utf-8"?>
<!-- Generator: Adobe Illustrator 16.0.0, SVG Export Plug-In . SVG Version: 6.00 Build 0)  -->
<!DOCTYPE svg PUBLIC "-//W3C//DTD SVG 1.0//EN" "http://www.w3.org/TR/2001/REC-SVG-20010904/DTD/svg10.dtd">
<svg version="1.0" id="Layer_1" xmlns="http://www.w3.org/2000/svg" xmlns:xlink="http://www.w3.org/1999/xlink" x="0px" y="0px"
	 width="100px" height="100px" viewBox="0 0 100 100" enable-background="new 0 0 100 100" xml:space="preserve">
<path d="M83.496,78.555l-16.985-3.776c-1.738-0.384-3.314-1.451-4.486-2.857c-3.604,3.057-7.705,4.746-12.125,4.746
	c-4.327,0-8.382-1.67-11.97-4.697c-1.166,1.38-2.721,2.428-4.434,2.809L16.51,78.555C12.93,79.349,10,83.001,10,86.667V90h80v-3.333
	C90,83.001,87.07,79.349,83.496,78.555z"/>
<path d="M43.335,10C35.97,10,30,15.97,30,23.333V30c0,22.09,8.958,40,20,40c11.048,0,20-17.91,20-40V10H43.335z M50,63.333
	c-5.436,0-13.333-12.984-13.333-33.333c9.583,0,18.568,2.549,26.338,6.976C61.472,53.265,54.785,63.333,50,63.333z"/>
</svg>
